<?xml version="1.0" encoding="utf-8"?>
<svg viewBox="327 171.59999084472656 120.60000610351562 67.30000305175781" width="120.60000610351562" height="67.30000305175781" xmlns="http://www.w3.org/2000/svg"><path fill="#CCCCCC" d="M433.6,231.9c0,3.9,3.1,7,7,7c3.9,0,7-3.1,7-7c0-33.3-27.1-60.3-60.3-60.3c-33.3,0-60.3,27.1-60.3,60.3&#10;&#9;&#9;c0,3.9,3.1,7,7,7c3.9,0,7-3.1,7-7c0-25.5,20.8-46.3,46.3-46.3C412.8,185.6,433.6,206.4,433.6,231.9z" transform="matrix(1, 0, 0, 1, 5.684341886080802e-14, 0)"/></svg>